<?xml version="1.0" encoding="utf-8"?>
<!-- Generator: Adobe Illustrator 24.3.0, SVG Export Plug-In . SVG Version: 6.00 Build 0)  -->
<svg version="1.1" xmlns="http://www.w3.org/2000/svg" xmlns:xlink="http://www.w3.org/1999/xlink" x="0px" y="0px"
	 viewBox="0 0 256 256" style="enable-background:new 0 0 256 256;" xml:space="preserve">
<style type="text/css">
	.st0{display:none;}
	.st1{display:inline;fill:#2366D1;}
	.st2{display:inline;fill:#609DFF;}
	.st3{display:inline;fill:#A4C7FF;}
	.st4{display:inline;fill:#2266D1;}
	.st5{fill:#2266D1;}
	.st6{fill:#609DFF;}
	.st7{fill:#A4C7FF;}
</style>
<g id="图层_1" class="st0">
	<path class="st1" d="M110.85,128l110.85,64l-110.85,64L0,192L110.85,128z"/>
	<path class="st2" d="M110.85,64l110.85,64l-110.85,64L0,128L110.85,64z"/>
	<path class="st3" d="M110.85,0L221.7,64l-110.85,64L0,64L110.85,0z"/>
	<polygon class="st4" points="56.09,30.03 89.1,103.76 83.1,105.9 56.09,41.17 41.52,40.74 77.95,126.14 115.25,126.14 
		140.11,186.06 131.54,206.64 104.1,139.34 66.81,139.76 20.08,36.03 20.08,30.03 	"/>
	<path class="st4" d="M110.96,36.88"/>
	<polygon class="st4" points="114.39,30.03 86.96,86.61 92.53,106.76 123.82,42.46 144.4,42.46 144.4,30.03 	"/>
	<polygon class="st4" points="197.98,30.03 173.55,103.76 179.98,106.76 204.41,41.17 227.13,40.31 202.27,109.76 206.55,113.62 
		234.85,36.88 234.85,30.03 	"/>
	<polygon class="st4" points="137.54,61.75 164.97,126.14 206.98,126.14 248.13,216.92 248.13,227.21 196.27,227.21 195.84,222.93 
		228.42,223.78 187.26,138.91 159.33,139.12 128.54,68.39 	"/>
	<polygon class="st4" points="170.97,157.34 144.4,221.21 115.68,221.21 115.68,227.21 159.4,227.21 182.12,174.06 173.55,154.77 	
		"/>
	<polygon class="st4" points="65.52,144.48 35.09,227.21 71.09,227.21 95.53,159.48 89.1,152.2 65.31,220.78 43.66,219.93 
		71.09,150.48 	"/>
	<polygon class="st2" points="52.09,28.79 85.1,102.52 79.1,104.66 52.09,39.93 37.52,39.5 73.95,124.9 111.25,124.9 136.11,184.82 
		127.54,205.4 100.1,138.1 62.81,138.53 16.08,34.79 16.08,28.79 	"/>
	<path class="st2" d="M106.96,35.65"/>
	<polygon class="st2" points="110.39,28.79 82.95,85.37 88.53,105.52 119.82,41.22 140.4,41.22 140.4,28.79 	"/>
	<polygon class="st2" points="193.98,28.79 169.54,102.52 175.98,105.52 200.41,39.93 223.13,39.08 198.27,108.52 202.55,112.38 
		230.84,35.65 230.84,28.79 	"/>
	<polygon class="st2" points="133.54,60.51 160.97,124.9 202.98,124.9 244.13,215.69 244.13,225.97 192.26,225.97 191.84,221.69 
		224.41,222.54 183.26,137.67 155.33,137.89 124.53,67.15 	"/>
	<polygon class="st2" points="166.97,156.1 140.4,219.97 111.67,219.97 111.67,225.97 155.4,225.97 178.12,172.82 169.54,153.53 	
		"/>
	<polygon class="st2" points="61.52,143.24 31.09,225.97 67.09,225.97 91.53,158.24 85.1,150.96 61.31,219.54 39.66,218.69 
		67.09,149.24 	"/>
	<polygon class="st3" points="43.87,30.03 76.88,103.76 70.88,105.9 43.87,41.17 29.3,40.74 65.74,126.14 103.03,126.14 
		127.89,186.06 119.32,206.64 91.88,139.34 54.59,139.76 7.87,36.03 7.87,30.03 	"/>
	<path class="st3" d="M98.74,36.88"/>
	<polygon class="st3" points="102.17,30.03 74.74,86.61 80.31,106.76 111.6,42.46 132.18,42.46 132.18,30.03 	"/>
	<polygon class="st3" points="185.76,30.03 161.33,103.76 167.76,106.76 192.19,41.17 214.91,40.31 190.05,109.76 194.34,113.62 
		222.63,36.88 222.63,30.03 	"/>
	<polygon class="st3" points="125.32,61.75 152.76,126.14 194.76,126.14 235.92,216.92 235.92,227.21 184.05,227.21 183.62,222.93 
		216.2,223.78 175.05,138.91 147.11,139.12 116.32,68.39 	"/>
	<polygon class="st3" points="158.76,157.34 132.18,221.21 103.46,221.21 103.46,227.21 147.18,227.21 169.9,174.06 161.33,154.77 	
		"/>
	<polygon class="st3" points="53.3,144.48 22.87,227.21 58.88,227.21 83.31,159.48 76.88,152.2 53.09,220.78 31.44,219.93 
		58.88,150.48 	"/>
</g>
<g id="图层_2">
	<polygon class="st5" points="51.38,24.11 86.55,102.67 80.16,104.95 51.38,35.99 35.85,35.53 74.68,126.52 114.41,126.52 
		140.9,190.36 131.77,212.29 102.54,140.58 62.8,141.03 13.02,30.5 13.02,24.11 	"/>
	<path class="st5" d="M109.84,31.42"/>
	<polygon class="st5" points="113.5,24.11 84.27,84.4 90.21,105.87 123.55,37.36 145.47,37.36 145.47,24.11 	"/>
	<polygon class="st5" points="202.56,24.11 176.53,102.67 183.38,105.87 209.41,35.99 233.62,35.07 207.13,109.06 211.7,113.17 
		241.84,31.42 241.84,24.11 	"/>
	<polygon class="st5" points="138.16,57.91 167.39,126.52 212.15,126.52 256,223.25 256,234.21 200.74,234.21 200.28,229.64 
		234.99,230.55 191.14,140.12 161.38,140.35 128.57,64.99 	"/>
	<polygon class="st5" points="173.79,159.76 145.47,227.81 114.87,227.81 114.87,234.21 161.46,234.21 185.66,177.57 176.53,157.02 
			"/>
	<polygon class="st5" points="61.43,146.06 29,234.21 67.37,234.21 93.4,162.04 86.55,154.28 61.2,227.36 38.14,226.44 
		67.37,152.45 	"/>
	<polygon class="st6" points="47.12,22.79 82.29,101.35 75.89,103.63 47.12,34.67 31.59,34.21 70.41,125.2 110.15,125.2 
		136.64,189.04 127.51,210.97 98.27,139.26 58.54,139.72 8.75,29.19 8.75,22.79 	"/>
	<path class="st6" d="M105.58,30.1"/>
	<polygon class="st6" points="109.24,22.79 80,83.08 85.94,104.55 119.28,36.04 141.21,36.04 141.21,22.79 	"/>
	<polygon class="st6" points="198.3,22.79 172.27,101.35 179.12,104.55 205.15,34.67 229.36,33.75 202.87,107.74 207.43,111.85 
		237.58,30.1 237.58,22.79 	"/>
	<polygon class="st6" points="133.9,56.59 163.13,125.2 207.89,125.2 251.74,221.93 251.74,232.89 196.47,232.89 196.02,228.32 
		230.73,229.24 186.88,138.8 157.12,139.03 124.31,63.67 	"/>
	<polygon class="st6" points="169.52,158.44 141.21,226.5 110.61,226.5 110.61,232.89 157.19,232.89 181.4,176.25 172.27,155.7 	"/>
	<polygon class="st6" points="57.17,144.74 24.74,232.89 63.11,232.89 89.14,160.73 82.29,152.96 56.94,226.04 33.87,225.12 
		63.11,151.13 	"/>
	<polygon class="st7" points="38.37,24.11 73.53,102.67 67.14,104.95 38.37,35.99 22.84,35.53 61.66,126.52 101.4,126.52 
		127.89,190.36 118.75,212.29 89.52,140.58 49.78,141.03 0,30.5 0,24.11 	"/>
	<path class="st7" d="M96.83,31.42"/>
	<polygon class="st7" points="100.48,24.11 71.25,84.4 77.19,105.87 110.53,37.36 132.45,37.36 132.45,24.11 	"/>
	<polygon class="st7" points="189.55,24.11 163.51,102.67 170.36,105.87 196.4,35.99 220.6,35.07 194.11,109.06 198.68,113.17 
		228.82,31.42 228.82,24.11 	"/>
	<polygon class="st7" points="125.15,57.91 154.38,126.52 199.14,126.52 242.98,223.25 242.98,234.21 187.72,234.21 187.26,229.64 
		221.97,230.55 178.13,140.12 148.36,140.35 115.55,64.99 	"/>
	<polygon class="st7" points="160.77,159.76 132.45,227.81 101.85,227.81 101.85,234.21 148.44,234.21 172.65,177.57 163.51,157.02 
			"/>
	<polygon class="st7" points="48.41,146.06 15.99,234.21 54.35,234.21 80.39,162.04 73.53,154.28 48.19,227.36 25.12,226.44 
		54.35,152.45 	"/>
</g>
</svg>
